Coordinates
version=1
nRows=41
nColumns=38
inDegrees=no

Units are S.I. units (second, meters, Newtons, ...)
If the header above contains a line with 'inDegrees', this indicates whether rotational values are in degrees (yes) or radians (no).

endheader
time	pelvis_tilt	pelvis_list	pelvis_rotation	pelvis_tx	pelvis_ty	pelvis_tz	hip_flexion_r	hip_adduction_r	hip_rotation_r	knee_angle_r	ankle_angle_r	subtalar_angle_r	mtp_angle_r	hip_flexion_l	hip_adduction_l	hip_rotation_l	knee_angle_l	ankle_angle_l	subtalar_angle_l	mtp_angle_l	lumbar_extension	lumbar_bending	lumbar_rotation	arm_flex_r	arm_add_r	arm_rot_r	elbow_flex_r	pro_sup_r	wrist_flex_r	wrist_dev_r	arm_flex_l	arm_add_l	arm_rot_l	elbow_flex_l	pro_sup_l	wrist_flex_l	wrist_dev_l
0	3.09867	1.38174	1.7009	0.803603	1.24062	1.00652	0.792961	-0.0453869	-0.0280645	0.690708	0.156978	0	0	0.110523	-0.0422903	-0.222615	0.502982	0.2489	0	0	0.16614	0.0410372	-0.203896	-0.321098	-0.353954	0.73385	0.442161	0.990062	0	0	0.0820384	-0.408714	0.374813	0.589153	1.47407	0	0
0.01	3.1288	1.37719	1.67471	0.803547	1.23094	1.00374	0.797086	-0.0421244	-0.0272383	0.659983	0.173162	0	0	0.126282	-0.0668372	-0.271464	0.55732	0.25419	0	0	0.167687	0.0483834	-0.205582	-0.331847	-0.350755	0.718002	0.435057	1.00807	0	0	0.0827015	-0.414266	0.369338	0.6102	1.47523	0	0
0.02	3.13065	1.37442	1.67838	0.803656	1.22048	1.00206	0.797461	-0.0461042	-0.030385	0.632881	0.183505	0	0	0.118616	-0.0674236	-0.268484	0.557231	0.255273	0	0	0.169725	0.0503589	-0.20996	-0.339395	-0.346535	0.713731	0.422657	1.01683	0	0	0.085559	-0.416788	0.368721	0.617455	1.47454	0	0
0.03	3.13336	1.37258	1.68144	0.803777	1.20975	1.00046	0.797323	-0.0499746	-0.0338685	0.612405	0.191622	0	0	0.110048	-0.0691405	-0.268027	0.558479	0.255566	0	0	0.171301	0.0530046	-0.214013	-0.347447	-0.343441	0.708333	0.412598	1.0261	0	0	0.0892215	-0.417737	0.369975	0.621573	1.47256	0	0
0.04	-3.14116	1.37298	1.67932	0.803842	1.19888	0.999249	0.791195	-0.0520012	-0.0349993	0.587639	0.199736	0	0	0.0997708	-0.0725373	-0.267096	0.560421	0.254965	0	0	0.16951	0.0557409	-0.228411	-0.333404	-0.34663	0.789682	0.390796	0.974457	0	0	0.0782101	-0.416655	0.334733	0.634476	1.49829	0	0
0.05	-3.13329	1.37222	1.67798	0.803834	1.18789	0.99786	0.789563	-0.0542155	-0.0355942	0.576703	0.205056	0	0	0.0916312	-0.075971	-0.266532	0.564111	0.253704	0	0	0.170128	0.0592451	-0.234406	-0.337469	-0.342889	0.790544	0.37741	0.984831	0	0	0.0792193	-0.417604	0.335563	0.637667	1.49933	0	0
0.06	-3.1246	1.3711	1.67645	0.803751	1.17672	0.996541	0.789113	-0.0563908	-0.0351275	0.573269	0.20829	0	0	0.0845699	-0.0800109	-0.265137	0.568246	0.251282	0	0	0.171621	0.0629109	-0.240969	-0.3416	-0.339637	0.789709	0.365259	0.995128	0	0	0.0803474	-0.417309	0.336775	0.638818	1.49765	0	0
0.07	-3.11312	1.36961	1.67268	0.803537	1.16534	0.99529	0.78915	-0.0580559	-0.0343748	0.5755	0.209336	0	0	0.0788667	-0.0851367	-0.261386	0.573606	0.247629	0	0	0.174393	0.0668937	-0.24798	-0.345675	-0.336028	0.786526	0.352838	1.00683	0	0	0.0812798	-0.415661	0.337992	0.638059	1.49339	0	0
0.08	-3.10028	1.36819	1.66692	0.80317	1.15376	0.994118	0.788499	-0.058387	-0.0332304	0.581465	0.207961	0	0	0.0734328	-0.0909094	-0.256782	0.579478	0.243857	0	0	0.177456	0.0713026	-0.254173	-0.350329	-0.333515	0.77979	0.343257	1.01723	0	0	0.0809719	-0.413893	0.339757	0.636947	1.49003	0	0
0.09	-3.08873	1.36528	1.66254	0.802703	1.14195	0.992875	0.790501	-0.058685	-0.0332572	0.596339	0.206036	0	0	0.0703497	-0.096559	-0.250452	0.586696	0.236841	0	0	0.182812	0.0741009	-0.265884	-0.341978	-0.338683	0.853159	0.332217	0.950528	0	0	0.0704666	-0.412443	0.325191	0.641722	1.49548	0	0
0.1	-3.07568	1.36322	1.65616	0.802188	1.12984	0.991741	0.789965	-0.0576895	-0.0319419	0.612367	0.200458	0	0	0.0666595	-0.102888	-0.243699	0.59448	0.230197	0	0	0.187312	0.0783421	-0.27179	-0.346082	-0.335903	0.842854	0.322165	0.958993	0	0	0.066398	-0.410226	0.325629	0.641364	1.4938	0	0
0.11	-3.0613	1.36163	1.64785	0.801629	1.11742	0.990722	0.787969	-0.056043	-0.0321039	0.629858	0.192068	0	0	0.0627757	-0.109834	-0.23651	0.602897	0.223531	0	0	0.191836	0.0832326	-0.277646	-0.348939	-0.336901	0.844576	0.316805	0.951871	0	0	0.0608343	-0.406681	0.324123	0.640397	1.49424	0	0
0.12	-3.04454	1.35858	1.63643	0.800879	1.10473	0.989725	0.787934	-0.0541685	-0.0354471	0.648087	0.17484	0	0	0.0613129	-0.117637	-0.228192	0.612763	0.213642	0	0	0.198654	0.0883384	-0.283893	-0.348618	-0.338705	0.862548	0.309553	0.927197	0	0	0.0525886	-0.402628	0.320732	0.639416	1.49709	0	0
0.13	-3.02111	1.35509	1.61625	0.799858	1.092	0.988974	0.788779	-0.0508269	-0.0403313	0.66205	0.151987	0	0	0.061396	-0.127341	-0.219549	0.624733	0.202393	0	0	0.206594	0.0956469	-0.281704	-0.358157	-0.327284	0.788361	0.292711	0.990977	0	0	0.052536	-0.398067	0.336063	0.630599	1.49242	0	0
0.14	-2.98976	1.35235	1.58568	0.798653	1.07923	0.988744	0.789356	-0.0455736	-0.0475683	0.673634	0.136211	0	0	0.0615818	-0.138856	-0.210835	0.638476	0.189357	0	0	0.214381	0.105095	-0.286336	-0.345279	-0.342456	0.910687	0.293565	0.856321	0	0	0.0420271	-0.389222	0.32352	0.623737	1.50483	0	0
0.15	-2.95269	1.35137	1.54666	0.797268	1.06638	0.989075	0.787695	-0.0377752	-0.057164	0.685663	0.121651	0	0	0.0604671	-0.151621	-0.20334	0.654374	0.175408	0	0	0.218283	0.117961	-0.284388	-0.341764	-0.344358	0.922017	0.285677	0.834837	0	0	0.0375959	-0.379641	0.323351	0.613116	1.50425	0	0
0.16	-2.90949	1.35111	1.49823	0.795818	1.05343	0.989536	0.785168	-0.0273954	-0.0688146	0.699254	0.102897	0	0	0.0593155	-0.166373	-0.200485	0.67481	0.160175	0	0	0.217386	0.13568	-0.272683	-0.339767	-0.346751	0.927045	0.280412	0.811252	0	0	0.0387835	-0.367429	0.328253	0.601778	1.50217	0	0
0.17	-2.87982	1.35187	1.46183	0.793768	1.04052	0.990717	0.780609	-0.0179268	-0.0781006	0.711212	0.0890184	0	0	0.058442	-0.176506	-0.193497	0.695362	0.143347	0	0	0.218968	0.146019	-0.268297	-0.332726	-0.34786	0.933873	0.272762	0.798018	0	0	0.0310655	-0.359108	0.327449	0.591497	1.49841	0	0
0.18	-2.85571	1.35364	1.42922	0.791464	1.0276	0.992069	0.775402	-0.00880249	-0.0875321	0.724092	0.0772058	0	0	0.0588287	-0.185448	-0.188691	0.71977	0.115967	0	0	0.218379	0.156063	-0.25519	-0.338169	-0.327347	0.77362	0.247478	0.952028	0	0	0.0314427	-0.352984	0.351937	0.576957	1.47351	0	0
0.19	-2.83718	1.3551	1.40094	0.78906	1.01469	0.993362	0.770016	9.44441e-05	-0.0953862	0.736273	0.0712935	0	0	0.0618782	-0.192472	-0.183849	0.747431	0.0863841	0	0	0.218481	0.164299	-0.245334	-0.328193	-0.331409	0.806583	0.244138	0.909647	0	0	0.0246365	-0.347424	0.366086	0.56814	1.45115	0	0
0.2	-2.82386	1.35608	1.37784	0.786601	1.00192	0.994587	0.763609	0.00872896	-0.102184	0.746185	0.067015	0	0	0.0684703	-0.196911	-0.174427	0.778473	0.0680425	0	0	0.21671	0.171336	-0.238289	-0.316977	-0.332952	0.802799	0.240706	0.913558	0	0	0.00883176	-0.336803	0.34109	0.565783	1.46621	0	0
0.21	-2.81307	1.35731	1.35751	0.784067	0.989334	0.995782	0.755324	0.0173764	-0.108726	0.753431	0.0640674	0	0	0.0781609	-0.200911	-0.164986	0.812288	0.038226	0	0	0.214774	0.177194	-0.22851	-0.304674	-0.335481	0.819423	0.239334	0.890834	0	0	-0.00258373	-0.330493	0.338826	0.562742	1.45944	0	0
0.22	-2.80268	1.35816	1.33867	0.781578	0.977065	0.996904	0.746054	0.0258371	-0.116537	0.758123	0.0633544	0	0	0.0916946	-0.204272	-0.153047	0.849125	0.00764382	0	0	0.212588	0.182557	-0.219059	-0.291376	-0.338175	0.834675	0.239992	0.868527	0	0	-0.0127464	-0.324668	0.339533	0.559756	1.45202	0	0
0.23	-2.7918	1.35856	1.32059	0.779168	0.965193	0.997916	0.736147	0.0343901	-0.124763	0.760953	0.0661997	0	0	0.108986	-0.207101	-0.138601	0.889244	-0.0232531	0	0	0.210234	0.188237	-0.204485	-0.286147	-0.328843	0.738519	0.234261	0.950339	0	0	-0.0135966	-0.323746	0.374278	0.553486	1.41768	0	0
0.24	-2.77731	1.35857	1.29993	0.776902	0.95378	0.998861	0.725722	0.0435675	-0.131768	0.762172	0.0709918	0	0	0.129685	-0.209416	-0.121069	0.932595	-0.0466309	0	0	0.208409	0.193271	-0.197434	-0.265695	-0.343261	0.843754	0.249189	0.828658	0	0	-0.022	-0.318955	0.379564	0.55019	1.40912	0	0
0.25	-2.76306	1.35886	1.2796	0.774701	0.94273	0.999814	0.71432	0.0532633	-0.135325	0.762398	0.0761903	0	0	0.152028	-0.210982	-0.10273	0.978101	-0.0661941	0	0	0.202998	0.19884	-0.187389	-0.253878	-0.336611	0.763866	0.247712	0.899803	0	0	-0.0282303	-0.311708	0.376466	0.54691	1.41376	0	0
0.26	-2.75262	1.35897	1.26276	0.772622	0.931913	1.00078	0.702938	0.0624765	-0.135911	0.763304	0.0841588	0	0	0.176553	-0.211611	-0.0866516	1.02413	-0.0893145	0	0	0.198892	0.203386	-0.177493	-0.23676	-0.341362	0.77342	0.257665	0.874673	0	0	-0.0331883	-0.305604	0.381915	0.541612	1.4096	0	0
0.27	-2.74431	1.3593	1.24931	0.770824	0.921295	1.00184	0.690601	0.0697068	-0.13633	0.763672	0.0916662	0	0	0.202781	-0.210867	-0.0702288	1.06987	-0.110447	0	0	0.194771	0.20704	-0.169096	-0.218238	-0.345373	0.778821	0.266884	0.858208	0	0	-0.0377765	-0.298861	0.386705	0.534864	1.40656	0	0
0.28	-2.73774	1.3611	1.2374	0.769157	0.910929	1.0031	0.675599	0.0762536	-0.133064	0.761939	0.104116	0	0	0.228785	-0.209754	-0.0574232	1.11346	-0.141769	0	0	0.188973	0.210429	-0.150923	-0.21449	-0.338686	0.661537	0.277815	0.950681	0	0	-0.029615	-0.295942	0.432623	0.521337	1.37115	0	0
0.29	-2.73591	1.36447	1.22906	0.767462	0.900698	1.00456	0.659307	0.0815569	-0.127918	0.760516	0.110065	0	0	0.25282	-0.206902	-0.0473443	1.15372	-0.155556	0	0	0.180977	0.211331	-0.140948	-0.1928	-0.342673	0.672413	0.287562	0.939423	0	0	-0.0340818	-0.289012	0.434095	0.514669	1.37101	0	0
0.3	-2.73859	1.36805	1.22484	0.765731	0.890455	1.00611	0.643014	0.0855595	-0.123446	0.758722	0.116402	0	0	0.276069	-0.203397	-0.0400454	1.18882	-0.165909	0	0	0.173652	0.210885	-0.130052	-0.171576	-0.346766	0.682086	0.298999	0.930954	0	0	-0.0381495	-0.281926	0.43694	0.506609	1.37094	0	0
0.31	-2.74367	1.37164	1.22312	0.764048	0.88022	1.00769	0.626487	0.0888475	-0.119639	0.755843	0.123411	0	0	0.299251	-0.199497	-0.0346953	1.22112	-0.170571	0	0	0.166824	0.209755	-0.118637	-0.15074	-0.351622	0.691492	0.312714	0.923828	0	0	-0.0415218	-0.27451	0.441079	0.497249	1.37115	0	0
0.32	-2.75107	1.37519	1.22358	0.762381	0.87005	1.00925	0.609993	0.0919139	-0.115954	0.751909	0.130179	0	0	0.322229	-0.195301	-0.0314145	1.25005	-0.167792	0	0	0.160528	0.208007	-0.106586	-0.130326	-0.357336	0.701009	0.328754	0.918611	0	0	-0.0444013	-0.266964	0.446137	0.48737	1.37151	0	0
0.33	-2.7551	1.37919	1.2204	0.760741	0.860003	1.01079	0.592268	0.0958237	-0.111777	0.745815	0.140878	0	0	0.344416	-0.192185	-0.0305067	1.2774	-0.149533	0	0	0.152994	0.207724	-0.0850433	-0.13008	-0.359586	0.614116	0.360702	0.996362	0	0	-0.0367947	-0.261626	0.48414	0.471735	1.35095	0	0
0.34	-2.76885	1.38188	1.22697	0.759039	0.850012	1.01217	0.578131	0.0976699	-0.110885	0.743502	0.144024	0	0	0.367975	-0.187668	-0.0305276	1.2989	-0.138822	0	0	0.148717	0.204172	-0.0740887	-0.108927	-0.364999	0.625008	0.376765	0.991783	0	0	-0.042649	-0.256043	0.486955	0.465943	1.35239	0	0
0.35	-2.78101	1.38413	1.23238	0.757349	0.840057	1.01348	0.563087	0.09985	-0.110234	0.739237	0.149217	0	0	0.391978	-0.183649	-0.031127	1.31792	-0.122255	0	0	0.145327	0.201197	-0.0640836	-0.0893688	-0.372327	0.633245	0.397932	0.987357	0	0	-0.0484427	-0.25023	0.490221	0.459335	1.35393	0	0
0.36	-2.79148	1.38663	1.23608	0.755701	0.830181	1.01475	0.54692	0.101918	-0.108957	0.733783	0.155304	0	0	0.415232	-0.179412	-0.0315493	1.33336	-0.103276	0	0	0.141804	0.198736	-0.0544079	-0.0708084	-0.380889	0.638944	0.422503	0.983031	0	0	-0.0540792	-0.244271	0.493811	0.452329	1.35559	0	0
0.37	-2.8018	1.38956	1.23932	0.754112	0.820377	1.01602	0.529522	0.103497	-0.107349	0.727451	0.162006	0	0	0.437483	-0.175683	-0.0331789	1.3448	-0.0843212	0	0	0.137783	0.196464	-0.0445933	-0.0528338	-0.390148	0.642342	0.449188	0.979029	0	0	-0.0596224	-0.238206	0.497178	0.445454	1.35685	0	0
0.38	-2.80236	1.39462	1.23247	0.752601	0.810602	1.0174	0.507533	0.105902	-0.105121	0.717799	0.174142	0	0	0.456123	-0.174913	-0.038046	1.35315	-0.0539198	0	0	0.127018	0.196783	-0.0227444	-0.0638928	-0.391001	0.528441	0.496291	1.07106	0	0	-0.0554649	-0.230182	0.511123	0.433945	1.3599	0	0
0.39	-2.81734	1.39687	1.24033	0.751007	0.800885	1.01848	0.491527	0.105672	-0.105595	0.713756	0.178415	0	0	0.47828	-0.172372	-0.0419258	1.3559	-0.0453458	0	0	0.124845	0.193139	-0.0144756	-0.0429292	-0.396416	0.536138	0.5145	1.06715	0	0	-0.0630085	-0.225536	0.513184	0.429738	1.35869	0	0
0.4	-2.82677	1.40006	1.24375	0.749533	0.791201	1.01957	0.473279	0.105249	-0.108677	0.70741	0.185378	0	0	0.498668	-0.170519	-0.045389	1.35523	-0.0323856	0	0	0.120982	0.19054	-0.00726032	-0.0237376	-0.403938	0.541389	0.538279	1.06225	0	0	-0.0697786	-0.220351	0.514894	0.424989	1.35597	0	0
